<svg xmlns="http://www.w3.org/2000/svg" width="760" height="220" viewBox="0 0 760 220" role="img" aria-label="Repository Languages">
  <defs>
    <linearGradient id="surface" x1="0" y1="0" x2="1" y2="1">
      <stop offset="0%" stop-color="#101820"/>
      <stop offset="100%" stop-color="#1f2a37"/>
    </linearGradient>
  </defs>
  <rect width="760" height="220" rx="8" fill="url(#surface)"/>
  <rect x="0.5" y="0.5" width="759" height="219" rx="7.5" fill="none" stroke="#314155"/>
  <text x="26" y="38" fill="#f7fafc" font-family="Inter,Segoe UI,Arial,sans-serif" font-size="20" font-weight="700">Repository Languages</text>
  <text x="34" y="76" fill="#cbd5e1" font-family="Inter,Segoe UI,Arial,sans-serif" font-size="13">Java (16)</text>
  <rect x="34" y="86" width="690" height="10" rx="5" fill="#263241"/>
  <rect x="34" y="86" width="394" height="10" rx="5" fill="#38bdf8"/>
<text x="34" y="104" fill="#cbd5e1" font-family="Inter,Segoe UI,Arial,sans-serif" font-size="13">JavaScript (5)</text>
  <rect x="34" y="114" width="690" height="10" rx="5" fill="#263241"/>
  <rect x="34" y="114" width="123" height="10" rx="5" fill="#22c55e"/>
<text x="34" y="132" fill="#cbd5e1" font-family="Inter,Segoe UI,Arial,sans-serif" font-size="13">Go (4)</text>
  <rect x="34" y="142" width="690" height="10" rx="5" fill="#263241"/>
  <rect x="34" y="142" width="99" height="10" rx="5" fill="#f59e0b"/>
<text x="34" y="160" fill="#cbd5e1" font-family="Inter,Segoe UI,Arial,sans-serif" font-size="13">Vue (2)</text>
  <rect x="34" y="170" width="690" height="10" rx="5" fill="#263241"/>
  <rect x="34" y="170" width="49" height="10" rx="5" fill="#f43f5e"/>
<text x="34" y="188" fill="#cbd5e1" font-family="Inter,Segoe UI,Arial,sans-serif" font-size="13">Smarty (1)</text>
  <rect x="34" y="198" width="690" height="10" rx="5" fill="#263241"/>
  <rect x="34" y="198" width="25" height="10" rx="5" fill="#a78bfa"/>
</svg>